<svg width="314" height="388" viewBox="0 0 314 388" fill="none" xmlns="http://www.w3.org/2000/svg">
<g filter="url(#filter0_f_3_163)">
<path d="M202.27 203.382V235.886C202.27 239.212 199.561 241.902 196.21 241.902H116.79C113.439 241.902 110.73 239.212 110.73 235.886V203.382C110.73 200.056 108.02 197.365 104.67 197.365H71.9275C68.5773 197.365 65.8674 194.675 65.8674 191.349V67.5384C65.8674 64.2125 68.5773 61.5223 71.9275 61.5223H104.67C108.02 61.5223 110.73 58.832 110.73 55.5061V23.0161C110.73 19.6903 113.439 17 116.79 17H196.21C199.561 17 202.27 19.6903 202.27 23.0161V58.226C202.27 61.5518 199.561 64.2421 196.21 64.2421H119.053C115.703 64.2421 112.993 66.9323 112.993 70.2582V188.659C112.993 191.985 115.703 194.675 119.053 194.675H193.932C197.282 194.675 199.992 191.985 199.992 188.659V158.844C199.992 155.519 197.282 152.828 193.932 152.828H161.19C157.84 152.828 155.13 150.138 155.13 146.812V112.046C155.13 108.72 157.84 106.03 161.19 106.03H241.058C244.408 106.03 247.118 108.72 247.118 112.046V191.334C247.118 194.66 244.408 197.351 241.058 197.351H208.316C204.965 197.351 202.256 200.041 202.256 203.367L202.27 203.382Z" fill="white"/>
<path d="M31.3088 318.279V355.691H68.9942V345.788H54.5812V331.479H83.4966V356.416C83.4966 363.94 77.3026 369.985 69.7387 369.985H30.6686C23.0898 369.985 17 363.94 17 356.416V317.54C17 310.016 23.0898 303.97 30.6686 303.97H69.7387C77.3175 303.97 83.4966 310.755 83.4966 318.279H31.3088Z" fill="white"/>
<path d="M154.892 303.986C162.471 303.986 168.65 310.031 168.65 317.555V370H154.147V348.729H116.462V370H102.153V317.555C102.153 310.031 108.243 303.986 115.822 303.986H154.892ZM154.147 334.421V318.279H116.462V334.421H154.147Z" fill="white"/>
<path d="M247.252 303.986H262.126V370H247.713V325.715C240.239 334.524 232.198 344.236 224.813 352.854L201.809 325.803V370H187.5V303.986H202.285L224.828 330.666L247.267 303.986H247.252Z" fill="white"/>
<path d="M281.602 303.986H296.015V370H281.602V303.986Z" fill="white"/>
</g>
<g filter="url(#filter1_d_3_163)">
<path d="M204.756 207.367V207.575L204.77 207.59V239.886C204.77 242.933 202.288 245.402 199.21 245.402H119.79C116.712 245.402 114.23 242.933 114.23 239.886V207.382C114.23 203.776 111.292 200.865 107.67 200.865H74.9275C71.85 200.865 69.3674 198.396 69.3674 195.349V71.5384C69.3674 68.4921 71.85 66.0223 74.9275 66.0223H107.67C111.292 66.0223 114.23 63.1116 114.23 59.5061V27.0161C114.23 23.9698 116.712 21.5 119.79 21.5H199.21C202.288 21.5 204.77 23.9698 204.77 27.0161V62.226C204.77 65.2723 202.288 67.7421 199.21 67.7421H122.053C118.43 67.7421 115.493 70.6528 115.493 74.2582V192.659C115.493 196.264 118.43 199.175 122.053 199.175H196.932C200.555 199.175 203.492 196.264 203.492 192.659V162.844C203.492 159.239 200.555 156.328 196.932 156.328H164.19C161.113 156.328 158.63 153.859 158.63 150.812V116.046C158.63 113 161.113 110.53 164.19 110.53H244.058C247.135 110.53 249.618 113 249.618 116.046V195.334C249.618 198.381 247.135 200.851 244.058 200.851H211.316C207.693 200.851 204.756 203.761 204.756 207.367Z" fill="#2A2ACB" stroke="#F9F9F9"/>
<path d="M34.3088 321.779H33.8088V322.279V359.691V360.191H34.3088H71.9942H72.4942V359.691V349.788V349.288H71.9942H58.0812V335.979H85.9966V360.416C85.9966 367.655 80.0345 373.485 72.7387 373.485H33.6686C26.3625 373.485 20.5 367.66 20.5 360.416V321.54C20.5 314.296 26.3625 308.47 33.6686 308.47H72.7387C79.848 308.47 85.7212 314.708 85.9872 321.779H34.3088Z" fill="#4A4AC2" stroke="#F9F9F9"/>
<path d="M118.962 352.729V373.5H105.653V321.555C105.653 314.311 111.516 308.486 118.822 308.486H157.892C165.202 308.486 171.15 314.315 171.15 321.555V373.5H157.647V352.729V352.229H157.147H119.462H118.962V352.729ZM157.147 338.921H157.647V338.421V322.279V321.779H157.147H119.462H118.962V322.279V338.421V338.921H119.462H157.147Z" fill="#4A4AC2" stroke="#F9F9F9"/>
<path d="M240.682 340.848C236.337 346.025 231.977 351.219 227.815 356.083L205.19 329.479L204.309 328.443V329.803V373.5H191V308.486H205.053L227.446 334.989L227.829 335.442L228.211 334.988L250.499 308.486H264.626V373.5H251.213V329.715V328.352L250.332 329.391C247.183 333.103 243.937 336.971 240.682 340.848Z" fill="#4A4AC2" stroke="#F9F9F9"/>
<path d="M285.102 308.486H298.515V373.5H285.102V308.486Z" fill="#4A4AC2" stroke="#F9F9F9"/>
</g>
<defs>
<filter id="filter0_f_3_163" x="0" y="0" width="313.015" height="387" filterUnits="userSpaceOnUse" color-interpolation-filters="sRGB">
<feFlood flood-opacity="0" result="BackgroundImageFix"/>
<feBlend mode="normal" in="SourceGraphic" in2="BackgroundImageFix" result="shape"/>
<feGaussianBlur stdDeviation="8.5" result="effect1_foregroundBlur_3_163"/>
</filter>
<filter id="filter1_d_3_163" x="18" y="19" width="295.015" height="369" filterUnits="userSpaceOnUse" color-interpolation-filters="sRGB">
<feFlood flood-opacity="0" result="BackgroundImageFix"/>
<feColorMatrix in="SourceAlpha" type="matrix" values="0 0 0 0 0 0 0 0 0 0 0 0 0 0 0 0 0 0 127 0" result="hardAlpha"/>
<feOffset dx="6" dy="6"/>
<feGaussianBlur stdDeviation="4"/>
<feComposite in2="hardAlpha" operator="out"/>
<feColorMatrix type="matrix" values="0 0 0 0 0 0 0 0 0 0 0 0 0 0 0 0 0 0 0.07 0"/>
<feBlend mode="normal" in2="BackgroundImageFix" result="effect1_dropShadow_3_163"/>
<feBlend mode="normal" in="SourceGraphic" in2="effect1_dropShadow_3_163" result="shape"/>
</filter>
</defs>
</svg>
