<svg width="133" height="26" viewBox="0 0 133 26" fill="none" xmlns="http://www.w3.org/2000/svg">
<path d="M32.5393 12.4992C32.5393 5.86978 36.9012 1.55777 43.477 1.55777C49.4508 1.55777 53.6239 4.72954 53.6239 9.80438V10.2476H49.8622V9.80438C49.8622 6.56997 47.8069 4.8243 43.5074 4.8243C38.5436 4.8243 36.1425 7.20272 36.1425 12.4992C36.1425 17.7956 38.5452 20.142 43.5074 20.142C47.8069 20.142 49.8622 18.43 49.8622 15.1619V14.7491H53.6239V15.1619C53.6239 20.2688 49.4828 23.439 43.477 23.439C36.9012 23.439 32.5393 19.1254 32.5393 12.4976V12.4992Z" fill="#1D335A"/>
<path d="M55.4567 15.2582C55.4567 10.3424 58.9654 7.04373 64.1821 7.04373C69.3989 7.04373 72.938 10.3424 72.938 15.2582C72.938 20.1741 69.4293 23.4406 64.1821 23.4406C58.935 23.4406 55.4567 20.1098 55.4567 15.2582ZM69.5878 15.2582C69.5878 11.8969 68.0062 10.0565 64.1821 10.0565C60.358 10.0565 58.8086 11.8953 58.8086 15.2582C58.8086 18.6211 60.3885 20.3957 64.1821 20.3957C67.9758 20.3957 69.5878 18.5874 69.5878 15.2582Z" fill="#1D335A"/>
<path d="M75.4032 23.1242V7.36171H78.5326V11.6111H78.7535C79.2273 9.07367 80.9353 7.04373 84.1591 7.04373C87.7319 7.04373 89.2798 9.61327 89.2798 12.5939V14.656H85.8975V13.2604C85.8975 11.0088 84.9499 9.96176 82.6096 9.96176C79.922 9.96176 78.8159 11.4521 78.8159 14.2754V23.1242H75.4016H75.4032Z" fill="#1D335A"/>
<path d="M90.7988 15.2582C90.7988 10.3424 94.1491 7.04373 99.2714 7.04373C104.394 7.04373 107.459 9.74014 107.459 14.5291C107.459 15.0992 107.427 15.5441 107.333 16.0195H93.9923C94.1187 19.0644 95.6042 20.6816 99.2394 20.6816C102.527 20.6816 103.886 19.604 103.886 17.7314V17.4777H107.301V17.7635C107.301 21.1248 104.013 23.4406 99.3338 23.4406C94.1811 23.4406 90.7988 20.5226 90.7988 15.2582ZM94.0227 14.1164H104.234V14.0538C104.234 11.1357 102.558 9.74014 99.2074 9.74014C95.8571 9.74014 94.2132 11.2947 94.0227 14.1164Z" fill="#1D335A"/>
<path d="M110.019 5.52292V1.87418H113.433V5.52131H110.019V5.52292ZM110.019 23.1259V7.36175H113.433V23.1243H110.019V23.1259Z" fill="#1D335A"/>
<path d="M116.593 23.1242V7.36171H119.722V12.2454H119.943C120.417 9.58115 122.504 7.04373 126.487 7.04373C130.849 7.04373 132.998 9.99388 132.998 13.641V23.1242H129.584V14.5612C129.584 11.6111 128.257 10.1208 125 10.1208C121.553 10.1208 120.005 11.8969 120.005 15.3225V23.1242H116.591H116.593Z" fill="#1D335A"/>
<path d="M7.19515 0H0.480156C0.164816 0 -0.0640858 0.298709 0.0159499 0.603841L2.96446 11.8199C3.02049 12.0319 3.21097 12.178 3.42867 12.178H15.5877C15.8214 12.178 16.0135 12.0062 16.0519 11.7749C16.1623 11.1165 16.4233 10.511 16.7962 9.99069C16.9323 9.80279 16.9051 9.54102 16.7402 9.37721L7.5345 0.141325C7.44486 0.0513908 7.3216 0 7.19515 0Z" fill="#1D335A"/>
<path d="M27.6555 11.6962V6.74344C27.6555 6.31464 27.1385 6.09944 26.8344 6.40297L23.8346 9.41254C23.6714 9.57635 23.6442 9.83491 23.777 10.0244C24.1388 10.5383 24.3901 11.1357 24.4989 11.7813C24.5374 12.0126 24.7438 12.178 24.9775 12.178H27.1753C27.441 12.178 27.6555 11.9628 27.6555 11.6962Z" fill="#1D335A"/>
<path d="M3.21749 13.4258L6.18041 24.6884C6.22843 24.8972 6.3853 25 6.58379 25H7.19526C7.32332 25 7.44497 24.9486 7.53461 24.8587L16.7403 15.6228C16.9036 15.459 16.9308 15.1972 16.7963 15.0093C16.4234 14.489 16.1624 13.8819 16.052 13.2235C16.0136 12.9938 15.8215 12.822 15.5894 12.822H3.68169C3.36635 12.822 3.13745 13.1207 3.21749 13.4258Z" fill="#1D335A"/>
<path d="M19.5047 0H9.46018C9.03279 0 8.81829 0.518726 9.12083 0.823858L17.1996 8.92915C17.3629 9.09295 17.6206 9.12026 17.8079 8.98696C18.3265 8.61919 18.9316 8.36385 19.5863 8.25785C19.82 8.21931 19.9865 8.01214 19.9865 7.77446V0.481788C19.9865 0.215199 19.772 0 19.5063 0H19.5047Z" fill="#1D335A"/>
<path d="M27.6556 4.47903C27.6556 2.00585 25.6579 0 23.1912 0H21.0878C20.8317 0 20.6252 0.207169 20.6252 0.464123V7.80818C20.6252 8.03784 20.7933 8.22734 21.0174 8.26588C21.6689 8.37991 22.2708 8.64328 22.7846 9.01747C22.9655 9.14916 23.2168 9.12186 23.3753 8.96448L27.5195 4.80664C27.6059 4.71992 27.6556 4.60108 27.6556 4.47903Z" fill="#1D335A"/>
<path d="M27.6555 18.2566V13.3038C27.6555 13.0372 27.441 12.822 27.1753 12.822H24.9775C24.7438 12.822 24.5373 12.9874 24.4989 13.2187C24.3917 13.861 24.1419 14.4569 23.7818 14.9692C23.6457 15.1635 23.6745 15.4269 23.841 15.5939L26.8359 18.5986C27.1385 18.9022 27.6555 18.687 27.6555 18.2582V18.2566Z" fill="#1D335A"/>
<path d="M21.0894 25H23.1928C25.6579 25 27.6572 22.9942 27.6572 20.521C27.6572 20.3973 27.6091 20.2801 27.5211 20.1934L23.3785 16.0355C23.22 15.8765 22.9687 15.8508 22.7878 15.9825C22.2724 16.3567 21.6721 16.6185 21.0206 16.7341C20.7949 16.7743 20.6268 16.9638 20.6268 17.1934V24.5375C20.6268 24.7944 20.8333 25.0016 21.0894 25.0016V25Z" fill="#1D335A"/>
<path d="M9.45859 25H19.5047C19.7704 25 19.9849 24.7848 19.9849 24.5182V17.2031C19.9849 16.9702 19.8136 16.7791 19.5847 16.7422C18.93 16.6362 18.3249 16.3808 17.8063 16.0131C17.619 15.8798 17.3613 15.9087 17.198 16.0709L9.11924 24.1762C8.81671 24.4797 9.0312 24.9984 9.45859 24.9984V25Z" fill="#1D335A"/>
<path d="M23.8106 12.2342C23.7529 11.4585 23.4488 10.7519 22.975 10.193C22.8597 10.0581 22.7349 9.93126 22.602 9.81563C22.0482 9.33223 21.3423 9.01747 20.5659 8.95483C20.4699 8.9468 20.3738 8.94199 20.2746 8.94199C20.1946 8.94199 20.1145 8.9452 20.0345 8.95162C19.2501 9.00462 18.5378 9.31136 17.9744 9.79315C17.8399 9.90877 17.7135 10.034 17.5982 10.1673C17.11 10.7294 16.7962 11.4473 16.7386 12.2358C16.7322 12.3241 16.7274 12.4125 16.7274 12.5024C16.7274 12.5923 16.7322 12.6807 16.7386 12.769C16.7962 13.5575 17.1116 14.2754 17.5982 14.8375C17.7151 14.9708 17.8399 15.096 17.9744 15.2117C18.5362 15.6918 19.2501 16.0002 20.0345 16.0532C20.1129 16.058 20.193 16.0628 20.2746 16.0628C20.3722 16.0628 20.4699 16.058 20.5659 16.05C21.3423 15.9873 22.0466 15.6726 22.602 15.1892C22.7349 15.0719 22.8597 14.9467 22.975 14.8118C23.4488 14.2545 23.7545 13.5479 23.8106 12.7706C23.817 12.6823 23.8218 12.5939 23.8218 12.504C23.8218 12.4141 23.817 12.3257 23.8106 12.2374V12.2342Z" fill="#1D335A"/>
</svg>
