<svg width="50" height="62" viewBox="0 0 50 62" fill="none" xmlns="http://www.w3.org/2000/svg">
<path d="M32.5385 32.7356V38.4446C32.5385 39.0288 32.0626 39.5013 31.4742 39.5013H17.5258C16.9374 39.5013 16.4615 39.0288 16.4615 38.4446V32.7356C16.4615 32.1514 15.9855 31.6789 15.3972 31.6789H9.64677C9.05839 31.6789 8.58246 31.2064 8.58246 30.6222V8.87643C8.58246 8.29228 9.05839 7.81977 9.64677 7.81977H15.3972C15.9855 7.81977 16.4615 7.34726 16.4615 6.76312V1.05666C16.4615 0.47251 16.9374 0 17.5258 0H31.4742C32.0626 0 32.5385 0.47251 32.5385 1.05666V7.24082C32.5385 7.82497 32.0626 8.29747 31.4742 8.29747H17.9233C17.3349 8.29747 16.859 8.76998 16.859 9.35413V30.1497C16.859 30.7339 17.3349 31.2064 17.9233 31.2064H31.0741C31.6625 31.2064 32.1384 30.7339 32.1384 30.1497V24.9132C32.1384 24.329 31.6625 23.8565 31.0741 23.8565H25.3237C24.7354 23.8565 24.2594 23.384 24.2594 22.7999V16.6936C24.2594 16.1095 24.7354 15.6369 25.3237 15.6369H39.3506C39.939 15.6369 40.4149 16.1095 40.4149 16.6936V30.6197C40.4149 31.2038 39.939 31.6763 39.3506 31.6763H33.6002C33.0119 31.6763 32.5359 32.1488 32.5359 32.733L32.5385 32.7356Z" fill="#1C325B"/>
<path d="M2.51302 52.9158V59.4868H9.1316V57.7474H6.60028V55.2342H11.6786V59.614C11.6786 60.9355 10.5908 61.9974 9.26235 61.9974H2.40058C1.06954 61.9974 0 60.9355 0 59.614V52.786C0 51.4646 1.06954 50.4027 2.40058 50.4027H9.26235C10.5934 50.4027 11.6786 51.5944 11.6786 52.9158H2.51302Z" fill="#1C325B"/>
<path d="M24.2176 50.4053C25.5486 50.4053 26.6339 51.4671 26.6339 52.7886V61.9999H24.0868V58.264H17.4683V61.9999H14.9552V52.7886C14.9552 51.4671 16.0248 50.4053 17.3558 50.4053H24.2176ZM24.0868 55.7509V52.9158H17.4683V55.7509H24.0868Z" fill="#1C325B"/>
<path d="M40.4385 50.4053H43.0509V61.9999H40.5195V54.2217C39.2068 55.769 37.7947 57.4747 36.4977 58.9883L32.4575 54.2373V61.9999H29.9445V50.4053H32.5412L36.5003 55.0914L40.4411 50.4053H40.4385Z" fill="#1C325B"/>
<path d="M46.4713 50.4053H49.0026V61.9999H46.4713V50.4053Z" fill="#1C325B"/>
</svg>
