<svg width="309" height="53" viewBox="0 0 309 53" fill="none" xmlns="http://www.w3.org/2000/svg">
<path d="M35.5304 9.144C34.7384 9.144 34.0584 8.996 33.4904 8.7C32.9224 8.396 32.4864 7.94 32.1824 7.332C31.8784 6.716 31.7264 5.94 31.7264 5.004C31.7264 3.636 32.0544 2.604 32.7104 1.908C33.3744 1.204 34.3144 0.851996 35.5304 0.851996C36.3304 0.851996 37.0144 1.004 37.5824 1.308C38.1504 1.612 38.5864 2.068 38.8904 2.676C39.2024 3.284 39.3584 4.06 39.3584 5.004C39.3584 6.364 39.0264 7.396 38.3624 8.1C37.7064 8.796 36.7624 9.144 35.5304 9.144ZM35.5304 7.788C36.0104 7.788 36.4064 7.696 36.7184 7.512C37.0384 7.32 37.2784 7.02 37.4384 6.612C37.5984 6.204 37.6784 5.664 37.6784 4.992C37.6784 4.32 37.5984 3.784 37.4384 3.384C37.2784 2.976 37.0384 2.68 36.7184 2.496C36.4064 2.312 36.0104 2.22 35.5304 2.22C35.0664 2.22 34.6744 2.316 34.3544 2.508C34.0424 2.692 33.8064 2.988 33.6464 3.396C33.4864 3.796 33.4064 4.332 33.4064 5.004C33.4064 5.676 33.4864 6.216 33.6464 6.624C33.8064 7.032 34.0424 7.328 34.3544 7.512C34.6744 7.696 35.0664 7.788 35.5304 7.788Z" fill="#1D335A"/>
<path d="M41.2477 9V4.152H40.3237V2.952H41.2597V2.76C41.2597 2.352 41.3037 2.008 41.3917 1.728C41.4797 1.448 41.5957 1.22 41.7397 1.044C41.8917 0.859996 42.0597 0.723996 42.2437 0.635996C42.4357 0.539996 42.6357 0.475996 42.8437 0.443995C43.0517 0.411996 43.2597 0.395996 43.4677 0.395996C43.5877 0.395996 43.7157 0.403996 43.8517 0.419996C43.9877 0.435996 44.1037 0.459996 44.1997 0.491996V1.836C44.1277 1.772 44.0477 1.724 43.9597 1.692C43.8797 1.652 43.7717 1.632 43.6357 1.632C43.5237 1.632 43.4157 1.644 43.3117 1.668C43.2077 1.684 43.1157 1.728 43.0357 1.8C42.9557 1.864 42.8917 1.96 42.8437 2.088C42.8037 2.216 42.7837 2.388 42.7837 2.604V2.952H44.1997V4.152H42.7717V9H41.2477Z" fill="#1D335A"/>
<path d="M45.9001 9V4.152H44.9761V2.952H45.9121V2.76C45.9121 2.352 45.9561 2.008 46.0441 1.728C46.1321 1.448 46.2481 1.22 46.3921 1.044C46.5441 0.859996 46.7121 0.723996 46.8961 0.635996C47.0881 0.539996 47.2881 0.475996 47.4961 0.443995C47.7041 0.411996 47.9121 0.395996 48.1201 0.395996C48.2401 0.395996 48.3681 0.403996 48.5041 0.419996C48.6401 0.435996 48.7561 0.459996 48.8521 0.491996V1.836C48.7801 1.772 48.7001 1.724 48.6121 1.692C48.5321 1.652 48.4241 1.632 48.2881 1.632C48.1761 1.632 48.0681 1.644 47.9641 1.668C47.8601 1.684 47.7681 1.728 47.6881 1.8C47.6081 1.864 47.5441 1.96 47.4961 2.088C47.4561 2.216 47.4361 2.388 47.4361 2.604V2.952H48.8521V4.152H47.4241V9H45.9001ZM49.9921 9V3.012H51.5161L51.5281 9H49.9921ZM49.9561 2.052V0.803996H51.5521V2.052H49.9561Z" fill="#1D335A"/>
<path d="M55.9845 9.132C55.5845 9.132 55.2005 9.076 54.8325 8.964C54.4645 8.852 54.1365 8.672 53.8485 8.424C53.5605 8.176 53.3325 7.856 53.1645 7.464C52.9965 7.072 52.9125 6.596 52.9125 6.036C52.9125 5.452 52.9925 4.956 53.1525 4.548C53.3125 4.14 53.5325 3.808 53.8125 3.552C54.0925 3.288 54.4165 3.1 54.7845 2.988C55.1605 2.868 55.5565 2.808 55.9725 2.808C56.2925 2.808 56.6205 2.84 56.9565 2.904C57.2925 2.968 57.5925 3.06 57.8565 3.18V4.5C57.5845 4.38 57.3125 4.284 57.0405 4.212C56.7685 4.132 56.4885 4.092 56.2005 4.092C55.6405 4.092 55.2045 4.232 54.8925 4.512C54.5805 4.792 54.4245 5.252 54.4245 5.892C54.4245 6.548 54.5645 7.036 54.8445 7.356C55.1325 7.676 55.6045 7.836 56.2605 7.836C56.5565 7.836 56.8445 7.792 57.1245 7.704C57.4045 7.608 57.6525 7.504 57.8685 7.392V8.724C57.5885 8.86 57.2965 8.96 56.9925 9.024C56.6885 9.096 56.3525 9.132 55.9845 9.132Z" fill="#1D335A"/>
<path d="M59.2608 9V3.012H60.7848L60.7968 9H59.2608ZM59.2248 2.052V0.803996H60.8208V2.052H59.2248Z" fill="#1D335A"/>
<path d="M64.762 9.18C64.426 9.18 64.106 9.148 63.802 9.084C63.498 9.02 63.226 8.916 62.986 8.772C62.746 8.62 62.554 8.416 62.41 8.16C62.274 7.896 62.206 7.568 62.206 7.176C62.206 6.768 62.29 6.424 62.458 6.144C62.626 5.856 62.87 5.64 63.19 5.496C63.518 5.344 63.918 5.268 64.39 5.268C64.678 5.268 64.946 5.296 65.194 5.352C65.442 5.4 65.666 5.468 65.866 5.556C66.066 5.644 66.23 5.74 66.358 5.844L66.466 6.696C66.298 6.584 66.082 6.496 65.818 6.432C65.562 6.36 65.282 6.324 64.978 6.324C64.554 6.324 64.238 6.392 64.03 6.528C63.822 6.664 63.718 6.876 63.718 7.164C63.718 7.364 63.774 7.532 63.886 7.668C63.998 7.796 64.142 7.896 64.318 7.968C64.494 8.032 64.678 8.064 64.87 8.064C65.31 8.064 65.626 8.036 65.818 7.98C66.018 7.916 66.118 7.784 66.118 7.584V5.196C66.118 4.804 65.994 4.52 65.746 4.344C65.498 4.16 65.15 4.068 64.702 4.068C64.358 4.068 64.006 4.128 63.646 4.248C63.286 4.36 62.994 4.508 62.77 4.692V3.312C62.986 3.176 63.31 3.056 63.742 2.952C64.174 2.848 64.638 2.796 65.134 2.796C65.342 2.796 65.562 2.816 65.794 2.856C66.026 2.896 66.246 2.96 66.454 3.048C66.67 3.136 66.866 3.26 67.042 3.42C67.218 3.572 67.358 3.768 67.462 4.008C67.566 4.24 67.618 4.524 67.618 4.86V7.728C67.618 8.104 67.498 8.4 67.258 8.616C67.018 8.824 66.686 8.968 66.262 9.048C65.838 9.136 65.338 9.18 64.762 9.18Z" fill="#1D335A"/>
<path d="M70.8149 9H69.3029V0.671996H70.8149V9Z" fill="#1D335A"/>
<path d="M77.6537 9L75.3137 0.995996H77.0897L78.7457 7.512H78.4457L80.3537 0.995996H81.6737L83.6177 7.608H83.2697L84.9377 0.995996H86.7137L84.3737 9H82.7537L80.8457 2.856H81.1817L79.2737 9H77.6537Z" fill="#1D335A"/>
<path d="M89.92 9.18C89.32 9.18 88.796 9.06 88.348 8.82C87.9 8.572 87.552 8.212 87.304 7.74C87.056 7.268 86.932 6.7 86.932 6.036C86.932 4.98 87.184 4.176 87.688 3.624C88.2 3.064 88.916 2.784 89.836 2.784C90.5 2.784 91.032 2.928 91.432 3.216C91.84 3.504 92.136 3.916 92.32 4.452C92.512 4.98 92.604 5.612 92.596 6.348H87.916L87.796 5.316H91.384L91.096 5.748C91.08 5.116 90.968 4.664 90.76 4.392C90.56 4.112 90.236 3.972 89.788 3.972C89.516 3.972 89.276 4.036 89.068 4.164C88.868 4.284 88.712 4.488 88.6 4.776C88.496 5.064 88.444 5.46 88.444 5.964C88.444 6.588 88.592 7.068 88.888 7.404C89.184 7.732 89.636 7.896 90.244 7.896C90.492 7.896 90.728 7.872 90.952 7.824C91.184 7.768 91.396 7.704 91.588 7.632C91.788 7.56 91.956 7.492 92.092 7.428V8.772C91.812 8.892 91.492 8.988 91.132 9.06C90.78 9.14 90.376 9.18 89.92 9.18Z" fill="#1D335A"/>
<path d="M96.5997 9.18C96.2637 9.18 95.9357 9.16 95.6157 9.12C95.3037 9.08 95.0197 9.008 94.7637 8.904C94.5157 8.792 94.3157 8.64 94.1637 8.448C94.0117 8.256 93.9357 8.008 93.9357 7.704V0.623996H95.4357V3.9L95.0997 3.42C95.2517 3.276 95.4397 3.16 95.6637 3.072C95.8877 2.984 96.1157 2.92 96.3477 2.88C96.5877 2.832 96.7877 2.808 96.9477 2.808C97.8517 2.808 98.5317 3.08 98.9877 3.624C99.4517 4.16 99.6837 4.928 99.6837 5.928C99.6837 6.568 99.5997 7.1 99.4317 7.524C99.2717 7.94 99.0477 8.268 98.7597 8.508C98.4717 8.748 98.1437 8.92 97.7757 9.024C97.4077 9.128 97.0157 9.18 96.5997 9.18ZM96.5517 7.896C96.9677 7.896 97.2917 7.812 97.5237 7.644C97.7557 7.476 97.9197 7.252 98.0157 6.972C98.1117 6.692 98.1597 6.372 98.1597 6.012C98.1597 5.556 98.0997 5.184 97.9797 4.896C97.8597 4.608 97.6877 4.396 97.4637 4.26C97.2397 4.116 96.9637 4.044 96.6357 4.044C96.4517 4.044 96.2477 4.068 96.0237 4.116C95.8077 4.164 95.6117 4.24 95.4357 4.344V7.32C95.4357 7.472 95.4877 7.592 95.5917 7.68C95.7037 7.76 95.8437 7.816 96.0117 7.848C96.1877 7.88 96.3677 7.896 96.5517 7.896Z" fill="#1D335A"/>
<path d="M106.741 9.096C106.301 9.096 105.889 9.04 105.505 8.928C105.129 8.808 104.781 8.668 104.461 8.508V7.08C104.781 7.264 105.117 7.432 105.469 7.584C105.829 7.728 106.221 7.8 106.645 7.8C107.181 7.8 107.597 7.704 107.893 7.512C108.189 7.32 108.337 7.04 108.337 6.672C108.337 6.296 108.201 6 107.929 5.784C107.657 5.568 107.213 5.46 106.597 5.46H105.517V4.188H106.633C107.081 4.188 107.413 4.1 107.629 3.924C107.845 3.74 107.953 3.504 107.953 3.216C107.953 2.976 107.889 2.784 107.761 2.64C107.641 2.488 107.469 2.38 107.245 2.316C107.021 2.244 106.761 2.208 106.465 2.208C106.169 2.208 105.877 2.244 105.589 2.316C105.301 2.388 104.981 2.508 104.629 2.676V1.368C104.909 1.232 105.217 1.12 105.553 1.032C105.897 0.935996 106.257 0.887995 106.633 0.887995C107.041 0.887995 107.413 0.935996 107.749 1.032C108.093 1.128 108.389 1.272 108.637 1.464C108.885 1.648 109.077 1.876 109.213 2.148C109.349 2.412 109.417 2.716 109.417 3.06C109.417 3.308 109.373 3.528 109.285 3.72C109.197 3.912 109.089 4.076 108.961 4.212C108.833 4.348 108.705 4.456 108.577 4.536C108.457 4.608 108.357 4.652 108.277 4.668C108.397 4.692 108.541 4.756 108.709 4.86C108.877 4.964 109.041 5.104 109.201 5.28C109.369 5.448 109.509 5.656 109.621 5.904C109.733 6.144 109.789 6.42 109.789 6.732C109.789 7.116 109.713 7.456 109.561 7.752C109.409 8.04 109.197 8.284 108.925 8.484C108.653 8.684 108.333 8.836 107.965 8.94C107.597 9.044 107.189 9.096 106.741 9.096Z" fill="#1D335A"/>
<path d="M111.43 9V7.452H113.014V9H111.43Z" fill="#1D335A"/>
<path d="M117.751 9.144C116.599 9.144 115.747 8.8 115.195 8.112C114.643 7.424 114.367 6.392 114.367 5.016C114.367 3.64 114.643 2.608 115.195 1.92C115.747 1.224 116.599 0.875996 117.751 0.875996C118.911 0.875996 119.767 1.224 120.319 1.92C120.871 2.608 121.147 3.64 121.147 5.016C121.147 6.392 120.871 7.424 120.319 8.112C119.767 8.8 118.911 9.144 117.751 9.144ZM117.751 7.8C117.959 7.8 118.167 7.768 118.375 7.704C118.583 7.64 118.771 7.516 118.939 7.332C119.107 7.14 119.239 6.86 119.335 6.492C119.439 6.116 119.491 5.624 119.491 5.016C119.491 4.4 119.439 3.908 119.335 3.54C119.239 3.172 119.107 2.896 118.939 2.712C118.771 2.52 118.583 2.392 118.375 2.328C118.167 2.256 117.959 2.22 117.751 2.22C117.543 2.22 117.335 2.256 117.127 2.328C116.927 2.392 116.743 2.52 116.575 2.712C116.407 2.896 116.271 3.172 116.167 3.54C116.071 3.908 116.023 4.4 116.023 5.016C116.023 5.624 116.071 6.116 116.167 6.492C116.271 6.86 116.407 7.14 116.575 7.332C116.743 7.516 116.927 7.64 117.127 7.704C117.335 7.768 117.543 7.8 117.751 7.8Z" fill="#1D335A"/>
<path d="M122.601 10.344L123.489 7.992H124.809L123.729 10.344H122.601Z" fill="#1D335A"/>
<path d="M130.054 9V0.995996H131.734L134.542 5.028L133.618 5.1L136.558 0.995996H138.19V9H136.57V2.292L136.942 2.724L134.05 6.648L131.242 2.712L131.626 2.376V9H130.054Z" fill="#1D335A"/>
<path d="M142.596 9.18C141.996 9.18 141.472 9.06 141.024 8.82C140.576 8.572 140.228 8.212 139.98 7.74C139.732 7.268 139.608 6.7 139.608 6.036C139.608 4.98 139.86 4.176 140.364 3.624C140.876 3.064 141.592 2.784 142.512 2.784C143.176 2.784 143.708 2.928 144.108 3.216C144.516 3.504 144.812 3.916 144.996 4.452C145.188 4.98 145.28 5.612 145.272 6.348H140.592L140.472 5.316H144.06L143.772 5.748C143.756 5.116 143.644 4.664 143.436 4.392C143.236 4.112 142.912 3.972 142.464 3.972C142.192 3.972 141.952 4.036 141.744 4.164C141.544 4.284 141.388 4.488 141.276 4.776C141.172 5.064 141.12 5.46 141.12 5.964C141.12 6.588 141.268 7.068 141.564 7.404C141.86 7.732 142.312 7.896 142.92 7.896C143.168 7.896 143.404 7.872 143.628 7.824C143.86 7.768 144.072 7.704 144.264 7.632C144.464 7.56 144.632 7.492 144.768 7.428V8.772C144.488 8.892 144.168 8.988 143.808 9.06C143.456 9.14 143.052 9.18 142.596 9.18Z" fill="#1D335A"/>
<path d="M148.927 9.192C148.303 9.192 147.827 9.04 147.499 8.736C147.171 8.424 147.007 7.976 147.007 7.392V4.152H146.071V2.952H147.007V1.284H148.579V2.952H149.983V4.152H148.579V7.152C148.579 7.4 148.627 7.584 148.723 7.704C148.819 7.824 148.987 7.884 149.227 7.884C149.355 7.884 149.487 7.864 149.623 7.824C149.767 7.776 149.887 7.72 149.983 7.656V8.976C149.823 9.056 149.647 9.112 149.455 9.144C149.271 9.176 149.095 9.192 148.927 9.192Z" fill="#1D335A"/>
<path d="M153.649 9.18C153.313 9.18 152.993 9.148 152.689 9.084C152.385 9.02 152.113 8.916 151.873 8.772C151.633 8.62 151.441 8.416 151.297 8.16C151.161 7.896 151.093 7.568 151.093 7.176C151.093 6.768 151.177 6.424 151.345 6.144C151.513 5.856 151.757 5.64 152.077 5.496C152.405 5.344 152.805 5.268 153.277 5.268C153.565 5.268 153.833 5.296 154.081 5.352C154.329 5.4 154.553 5.468 154.753 5.556C154.953 5.644 155.117 5.74 155.245 5.844L155.353 6.696C155.185 6.584 154.969 6.496 154.705 6.432C154.449 6.36 154.169 6.324 153.865 6.324C153.441 6.324 153.125 6.392 152.917 6.528C152.709 6.664 152.605 6.876 152.605 7.164C152.605 7.364 152.661 7.532 152.773 7.668C152.885 7.796 153.029 7.896 153.205 7.968C153.381 8.032 153.565 8.064 153.757 8.064C154.197 8.064 154.513 8.036 154.705 7.98C154.905 7.916 155.005 7.784 155.005 7.584V5.196C155.005 4.804 154.881 4.52 154.633 4.344C154.385 4.16 154.037 4.068 153.589 4.068C153.245 4.068 152.893 4.128 152.533 4.248C152.173 4.36 151.881 4.508 151.657 4.692V3.312C151.873 3.176 152.197 3.056 152.629 2.952C153.061 2.848 153.525 2.796 154.021 2.796C154.229 2.796 154.449 2.816 154.681 2.856C154.913 2.896 155.133 2.96 155.341 3.048C155.557 3.136 155.753 3.26 155.929 3.42C156.105 3.572 156.245 3.768 156.349 4.008C156.453 4.24 156.505 4.524 156.505 4.86V7.728C156.505 8.104 156.385 8.4 156.145 8.616C155.905 8.824 155.573 8.968 155.149 9.048C154.725 9.136 154.225 9.18 153.649 9.18Z" fill="#1D335A"/>
<path d="M159.889 9L157.357 2.952H158.989L160.945 7.8L160.573 7.824L162.361 2.952H163.945L161.413 9H159.889Z" fill="#1D335A"/>
<path d="M167.404 9.18C166.804 9.18 166.28 9.06 165.832 8.82C165.384 8.572 165.036 8.212 164.788 7.74C164.54 7.268 164.416 6.7 164.416 6.036C164.416 4.98 164.668 4.176 165.172 3.624C165.684 3.064 166.4 2.784 167.32 2.784C167.984 2.784 168.516 2.928 168.916 3.216C169.324 3.504 169.62 3.916 169.804 4.452C169.996 4.98 170.088 5.612 170.08 6.348H165.4L165.28 5.316H168.868L168.58 5.748C168.564 5.116 168.452 4.664 168.244 4.392C168.044 4.112 167.72 3.972 167.272 3.972C167 3.972 166.76 4.036 166.552 4.164C166.352 4.284 166.196 4.488 166.084 4.776C165.98 5.064 165.928 5.46 165.928 5.964C165.928 6.588 166.076 7.068 166.372 7.404C166.668 7.732 167.12 7.896 167.728 7.896C167.976 7.896 168.212 7.872 168.436 7.824C168.668 7.768 168.88 7.704 169.072 7.632C169.272 7.56 169.44 7.492 169.576 7.428V8.772C169.296 8.892 168.976 8.988 168.616 9.06C168.264 9.14 167.86 9.18 167.404 9.18Z" fill="#1D335A"/>
<path d="M171.42 9V3.54C171.532 3.468 171.728 3.372 172.008 3.252C172.296 3.132 172.628 3.028 173.004 2.94C173.38 2.844 173.76 2.796 174.144 2.796C174.432 2.796 174.66 2.82 174.828 2.868C175.004 2.908 175.14 2.96 175.236 3.024V4.176C175.076 4.152 174.892 4.132 174.684 4.116C174.484 4.1 174.276 4.096 174.06 4.104C173.852 4.104 173.648 4.112 173.448 4.128C173.256 4.144 173.088 4.164 172.944 4.188V9H171.42Z" fill="#1D335A"/>
<path d="M178.095 9.18C177.663 9.18 177.295 9.132 176.991 9.036C176.687 8.948 176.395 8.84 176.115 8.712V7.344C176.299 7.464 176.491 7.58 176.691 7.692C176.898 7.796 177.119 7.88 177.351 7.944C177.591 8.008 177.847 8.04 178.119 8.04C178.439 8.04 178.675 7.98 178.827 7.86C178.987 7.732 179.067 7.58 179.067 7.404C179.067 7.236 179.007 7.108 178.887 7.02C178.767 6.924 178.611 6.844 178.419 6.78C178.227 6.716 178.023 6.652 177.807 6.588C177.607 6.54 177.402 6.476 177.195 6.396C176.995 6.316 176.811 6.208 176.643 6.072C176.475 5.936 176.339 5.764 176.235 5.556C176.139 5.34 176.091 5.08 176.091 4.776C176.091 4.416 176.163 4.112 176.307 3.864C176.451 3.616 176.639 3.416 176.871 3.264C177.103 3.112 177.359 3.004 177.639 2.94C177.919 2.868 178.191 2.832 178.455 2.832C178.911 2.848 179.279 2.904 179.559 3C179.839 3.088 180.103 3.204 180.351 3.348L180.363 4.584C180.083 4.432 179.811 4.296 179.547 4.176C179.283 4.048 178.983 3.984 178.647 3.984C178.335 3.984 178.09 4.04 177.915 4.152C177.747 4.256 177.663 4.404 177.663 4.596C177.663 4.764 177.715 4.9 177.819 5.004C177.923 5.108 178.059 5.188 178.227 5.244C178.395 5.3 178.579 5.356 178.779 5.412C178.979 5.468 179.187 5.532 179.403 5.604C179.619 5.668 179.818 5.764 180.003 5.892C180.187 6.02 180.335 6.192 180.447 6.408C180.566 6.616 180.627 6.896 180.627 7.248C180.619 7.712 180.495 8.088 180.255 8.376C180.014 8.656 179.699 8.86 179.307 8.988C178.923 9.116 178.519 9.18 178.095 9.18Z" fill="#1D335A"/>
<path d="M184.666 9.18C184.066 9.18 183.542 9.06 183.094 8.82C182.646 8.572 182.298 8.212 182.05 7.74C181.802 7.268 181.678 6.7 181.678 6.036C181.678 4.98 181.93 4.176 182.434 3.624C182.946 3.064 183.662 2.784 184.582 2.784C185.246 2.784 185.778 2.928 186.178 3.216C186.586 3.504 186.882 3.916 187.066 4.452C187.258 4.98 187.35 5.612 187.342 6.348H182.662L182.542 5.316H186.13L185.842 5.748C185.826 5.116 185.714 4.664 185.506 4.392C185.306 4.112 184.982 3.972 184.534 3.972C184.262 3.972 184.022 4.036 183.814 4.164C183.614 4.284 183.458 4.488 183.346 4.776C183.242 5.064 183.19 5.46 183.19 5.964C183.19 6.588 183.338 7.068 183.634 7.404C183.93 7.732 184.382 7.896 184.99 7.896C185.238 7.896 185.474 7.872 185.698 7.824C185.93 7.768 186.142 7.704 186.334 7.632C186.534 7.56 186.702 7.492 186.838 7.428V8.772C186.558 8.892 186.238 8.988 185.878 9.06C185.526 9.14 185.122 9.18 184.666 9.18Z" fill="#1D335A"/>
<path d="M188.73 10.344L189.618 7.992H190.938L189.858 10.344H188.73Z" fill="#1D335A"/>
<path d="M197.815 6.252V9H196.183V0.995996H199.567C200.487 0.995996 201.207 1.208 201.727 1.632C202.247 2.056 202.507 2.7 202.507 3.564C202.507 4.428 202.247 5.092 201.727 5.556C201.207 6.02 200.487 6.252 199.567 6.252H197.815ZM197.815 4.944H199.363C199.635 4.944 199.863 4.912 200.047 4.848C200.231 4.776 200.375 4.68 200.479 4.56C200.583 4.432 200.655 4.292 200.695 4.14C200.743 3.988 200.767 3.824 200.767 3.648C200.767 3.464 200.743 3.292 200.695 3.132C200.655 2.972 200.583 2.828 200.479 2.7C200.375 2.572 200.231 2.476 200.047 2.412C199.863 2.34 199.635 2.304 199.363 2.304H197.815V4.944Z" fill="#1D335A"/>
<path d="M203.94 9V7.812C204.212 7.636 204.512 7.424 204.84 7.176C205.176 6.92 205.504 6.64 205.824 6.336C206.152 6.024 206.448 5.704 206.712 5.376C206.984 5.04 207.2 4.708 207.36 4.38C207.528 4.052 207.612 3.74 207.612 3.444C207.612 3.18 207.556 2.956 207.444 2.772C207.332 2.58 207.16 2.432 206.928 2.328C206.704 2.224 206.424 2.172 206.088 2.172C205.672 2.172 205.296 2.256 204.96 2.424C204.624 2.592 204.308 2.788 204.012 3.012V1.56C204.316 1.376 204.672 1.212 205.08 1.068C205.488 0.923996 205.968 0.851996 206.52 0.851996C207.128 0.851996 207.632 0.955996 208.032 1.164C208.44 1.364 208.744 1.644 208.944 2.004C209.144 2.364 209.244 2.78 209.244 3.252C209.244 3.628 209.164 3.992 209.004 4.344C208.844 4.696 208.632 5.036 208.368 5.364C208.112 5.692 207.824 6.004 207.504 6.3C207.192 6.588 206.876 6.86 206.556 7.116C206.236 7.364 205.94 7.588 205.668 7.788L205.32 7.488H209.388V9H203.94Z" fill="#1D335A"/>
<path d="M211.171 9V0.995996H216.535V2.304H212.803V4.332H216.043V5.652H212.803V7.692H216.535V9H211.171Z" fill="#1D335A"/>
<path d="M223.233 6.252V9H221.601V0.995996H224.985C225.905 0.995996 226.625 1.208 227.145 1.632C227.665 2.056 227.925 2.7 227.925 3.564C227.925 4.428 227.665 5.092 227.145 5.556C226.625 6.02 225.905 6.252 224.985 6.252H223.233ZM223.233 4.944H224.781C225.053 4.944 225.281 4.912 225.465 4.848C225.649 4.776 225.793 4.68 225.897 4.56C226.001 4.432 226.073 4.292 226.113 4.14C226.161 3.988 226.185 3.824 226.185 3.648C226.185 3.464 226.161 3.292 226.113 3.132C226.073 2.972 226.001 2.828 225.897 2.7C225.793 2.572 225.649 2.476 225.465 2.412C225.281 2.34 225.053 2.304 224.781 2.304H223.233V4.944Z" fill="#1D335A"/>
<path d="M231.59 9.18C231.254 9.18 230.934 9.148 230.63 9.084C230.326 9.02 230.054 8.916 229.814 8.772C229.574 8.62 229.382 8.416 229.238 8.16C229.102 7.896 229.034 7.568 229.034 7.176C229.034 6.768 229.118 6.424 229.286 6.144C229.454 5.856 229.698 5.64 230.018 5.496C230.346 5.344 230.746 5.268 231.218 5.268C231.506 5.268 231.774 5.296 232.022 5.352C232.27 5.4 232.494 5.468 232.694 5.556C232.894 5.644 233.058 5.74 233.186 5.844L233.294 6.696C233.126 6.584 232.91 6.496 232.646 6.432C232.39 6.36 232.11 6.324 231.806 6.324C231.382 6.324 231.066 6.392 230.858 6.528C230.65 6.664 230.546 6.876 230.546 7.164C230.546 7.364 230.602 7.532 230.714 7.668C230.826 7.796 230.97 7.896 231.146 7.968C231.322 8.032 231.506 8.064 231.698 8.064C232.138 8.064 232.454 8.036 232.646 7.98C232.846 7.916 232.946 7.784 232.946 7.584V5.196C232.946 4.804 232.822 4.52 232.574 4.344C232.326 4.16 231.978 4.068 231.53 4.068C231.186 4.068 230.834 4.128 230.474 4.248C230.114 4.36 229.822 4.508 229.598 4.692V3.312C229.814 3.176 230.138 3.056 230.57 2.952C231.002 2.848 231.466 2.796 231.962 2.796C232.17 2.796 232.39 2.816 232.622 2.856C232.854 2.896 233.074 2.96 233.282 3.048C233.498 3.136 233.694 3.26 233.87 3.42C234.046 3.572 234.186 3.768 234.29 4.008C234.394 4.24 234.446 4.524 234.446 4.86V7.728C234.446 8.104 234.326 8.4 234.086 8.616C233.846 8.824 233.514 8.968 233.09 9.048C232.666 9.136 232.166 9.18 231.59 9.18Z" fill="#1D335A"/>
<path d="M236.131 9V3.54C236.243 3.468 236.439 3.372 236.719 3.252C237.007 3.132 237.339 3.028 237.715 2.94C238.091 2.844 238.471 2.796 238.855 2.796C239.143 2.796 239.371 2.82 239.539 2.868C239.715 2.908 239.851 2.96 239.947 3.024V4.176C239.787 4.152 239.603 4.132 239.395 4.116C239.195 4.1 238.987 4.096 238.771 4.104C238.563 4.104 238.359 4.112 238.159 4.128C237.967 4.144 237.799 4.164 237.655 4.188V9H236.131Z" fill="#1D335A"/>
<path d="M243.404 9.192C242.78 9.192 242.304 9.04 241.976 8.736C241.648 8.424 241.484 7.976 241.484 7.392V4.152H240.548V2.952H241.484V1.284H243.056V2.952H244.46V4.152H243.056V7.152C243.056 7.4 243.104 7.584 243.2 7.704C243.296 7.824 243.464 7.884 243.704 7.884C243.832 7.884 243.964 7.864 244.1 7.824C244.244 7.776 244.364 7.72 244.46 7.656V8.976C244.3 9.056 244.124 9.112 243.932 9.144C243.748 9.176 243.572 9.192 243.404 9.192Z" fill="#1D335A"/>
<path d="M245.869 3.456C246.037 3.376 246.237 3.296 246.469 3.216C246.701 3.136 246.953 3.068 247.225 3.012C247.497 2.948 247.769 2.9 248.041 2.868C248.321 2.828 248.585 2.808 248.833 2.808C249.393 2.808 249.857 2.884 250.225 3.036C250.601 3.18 250.881 3.412 251.065 3.732C251.257 4.044 251.353 4.456 251.353 4.968V9H249.841V5.232C249.841 5.08 249.821 4.936 249.781 4.8C249.741 4.656 249.673 4.532 249.577 4.428C249.481 4.316 249.349 4.232 249.181 4.176C249.013 4.112 248.797 4.08 248.533 4.08C248.333 4.08 248.129 4.1 247.921 4.14C247.713 4.18 247.537 4.232 247.393 4.296V9H245.869V3.456Z" fill="#1D335A"/>
<path d="M255.693 9.18C255.093 9.18 254.569 9.06 254.121 8.82C253.673 8.572 253.325 8.212 253.077 7.74C252.829 7.268 252.705 6.7 252.705 6.036C252.705 4.98 252.957 4.176 253.461 3.624C253.973 3.064 254.689 2.784 255.609 2.784C256.273 2.784 256.805 2.928 257.205 3.216C257.613 3.504 257.909 3.916 258.093 4.452C258.285 4.98 258.377 5.612 258.369 6.348H253.689L253.569 5.316H257.157L256.869 5.748C256.853 5.116 256.741 4.664 256.533 4.392C256.333 4.112 256.009 3.972 255.561 3.972C255.289 3.972 255.049 4.036 254.841 4.164C254.641 4.284 254.485 4.488 254.373 4.776C254.269 5.064 254.217 5.46 254.217 5.964C254.217 6.588 254.365 7.068 254.661 7.404C254.957 7.732 255.409 7.896 256.017 7.896C256.265 7.896 256.501 7.872 256.725 7.824C256.957 7.768 257.169 7.704 257.361 7.632C257.561 7.56 257.729 7.492 257.865 7.428V8.772C257.585 8.892 257.265 8.988 256.905 9.06C256.553 9.14 256.149 9.18 255.693 9.18Z" fill="#1D335A"/>
<path d="M259.709 9V3.54C259.821 3.468 260.017 3.372 260.297 3.252C260.585 3.132 260.917 3.028 261.293 2.94C261.669 2.844 262.049 2.796 262.433 2.796C262.721 2.796 262.949 2.82 263.117 2.868C263.293 2.908 263.429 2.96 263.525 3.024V4.176C263.365 4.152 263.181 4.132 262.973 4.116C262.773 4.1 262.565 4.096 262.349 4.104C262.141 4.104 261.937 4.112 261.737 4.128C261.545 4.144 261.377 4.164 261.233 4.188V9H259.709Z" fill="#1D335A"/>
<path d="M270.681 9.18C269.689 9.18 268.945 8.904 268.449 8.352C267.953 7.8 267.705 7.004 267.705 5.964C267.705 4.852 267.957 4.044 268.461 3.54C268.973 3.036 269.709 2.784 270.669 2.784C271.341 2.784 271.901 2.904 272.349 3.144C272.797 3.376 273.129 3.728 273.345 4.2C273.569 4.672 273.681 5.26 273.681 5.964C273.681 7.004 273.421 7.8 272.901 8.352C272.389 8.904 271.649 9.18 270.681 9.18ZM270.681 7.932C271.033 7.932 271.317 7.852 271.533 7.692C271.757 7.532 271.921 7.308 272.025 7.02C272.129 6.724 272.181 6.372 272.181 5.964C272.181 5.508 272.125 5.136 272.013 4.848C271.909 4.56 271.745 4.348 271.521 4.212C271.305 4.076 271.025 4.008 270.681 4.008C270.329 4.008 270.045 4.08 269.829 4.224C269.613 4.368 269.453 4.584 269.349 4.872C269.253 5.16 269.205 5.524 269.205 5.964C269.205 6.604 269.321 7.092 269.553 7.428C269.785 7.764 270.161 7.932 270.681 7.932Z" fill="#1D335A"/>
<path d="M275.517 9V4.152H274.593V2.952H275.529V2.76C275.529 2.352 275.573 2.008 275.661 1.728C275.749 1.448 275.865 1.22 276.009 1.044C276.161 0.859996 276.329 0.723996 276.513 0.635996C276.705 0.539996 276.905 0.475996 277.113 0.443995C277.321 0.411996 277.529 0.395996 277.737 0.395996C277.857 0.395996 277.985 0.403996 278.121 0.419996C278.257 0.435996 278.373 0.459996 278.469 0.491996V1.836C278.397 1.772 278.317 1.724 278.229 1.692C278.149 1.652 278.041 1.632 277.905 1.632C277.793 1.632 277.685 1.644 277.581 1.668C277.477 1.684 277.385 1.728 277.305 1.8C277.225 1.864 277.161 1.96 277.113 2.088C277.073 2.216 277.053 2.388 277.053 2.604V2.952H278.469V4.152H277.041V9H275.517Z" fill="#1D335A"/>
<path d="M13.8801 45.56C11.2668 45.56 8.97348 45.0933 7.00015 44.16C5.05348 43.2267 3.53348 41.7467 2.44015 39.72C1.37348 37.6667 0.840149 34.9867 0.840149 31.68C0.840149 28.4267 1.37348 25.7733 2.44015 23.72C3.53348 21.6667 5.05348 20.16 7.00015 19.2C8.97348 18.2133 11.2668 17.72 13.8801 17.72C15.5602 17.72 17.2001 17.8933 18.8001 18.24C20.4001 18.5867 21.9335 19.0667 23.4001 19.68V25.56C21.8001 24.7333 20.3068 24.0667 18.9201 23.56C17.5601 23.0533 16.1468 22.8 14.6801 22.8C13.1601 22.8 11.8535 23.0667 10.7601 23.6C9.69348 24.1333 8.88015 25.0533 8.32015 26.36C7.76015 27.64 7.48015 29.4 7.48015 31.64C7.48015 33.8533 7.76015 35.6133 8.32015 36.92C8.90682 38.2 9.72015 39.12 10.7601 39.68C11.8001 40.24 13.0135 40.52 14.4001 40.52C15.1201 40.52 15.7868 40.48 16.4001 40.4C17.0401 40.2933 17.6001 40.12 18.0801 39.88V35.16H13.6801V30.12H24.5602V42.68C22.9068 43.5867 21.1735 44.2933 19.3601 44.8C17.5735 45.3067 15.7468 45.56 13.8801 45.56Z" fill="#1D335A"/>
<path d="M37.8423 45.6C36.6157 45.6 35.4557 45.48 34.3623 45.24C33.2957 45.0267 32.349 44.6667 31.5223 44.16C30.7223 43.6267 30.0957 42.92 29.6423 42.04C29.189 41.1333 28.9623 40.0133 28.9623 38.68C28.9623 37.4267 29.2157 36.3333 29.7223 35.4C30.2557 34.4667 31.0557 33.7467 32.1223 33.24C33.189 32.7333 34.5357 32.48 36.1623 32.48C37.069 32.48 37.949 32.5733 38.8023 32.76C39.6557 32.9467 40.4157 33.2 41.0823 33.52C41.7757 33.84 42.3223 34.1867 42.7223 34.56L42.9623 37.44C42.429 37.12 41.789 36.8667 41.0423 36.68C40.2957 36.4933 39.4957 36.4 38.6423 36.4C37.3357 36.4 36.3757 36.6 35.7623 37C35.1757 37.3733 34.8823 37.9733 34.8823 38.8C34.8823 39.3067 35.029 39.76 35.3223 40.16C35.6157 40.56 36.0023 40.8667 36.4823 41.08C36.989 41.2933 37.509 41.4 38.0423 41.4C39.4023 41.4 40.349 41.3067 40.8823 41.12C41.4423 40.9333 41.7223 40.56 41.7223 40V32.56C41.7223 31.3333 41.3223 30.4533 40.5223 29.92C39.749 29.36 38.6423 29.08 37.2023 29.08C36.029 29.08 34.8423 29.2933 33.6423 29.72C32.469 30.12 31.509 30.6133 30.7623 31.2V25.92C31.4557 25.4933 32.5223 25.0933 33.9623 24.72C35.429 24.3467 37.069 24.16 38.8823 24.16C39.5223 24.16 40.229 24.2133 41.0023 24.32C41.7757 24.4267 42.549 24.6267 43.3223 24.92C44.0957 25.1867 44.8023 25.5867 45.4423 26.12C46.109 26.6533 46.6423 27.3333 47.0423 28.16C47.4423 28.9867 47.6423 30.0133 47.6423 31.24L47.6023 40.8C47.6023 41.9467 47.2157 42.88 46.4423 43.6C45.669 44.2933 44.549 44.8 43.0823 45.12C41.6423 45.44 39.8957 45.6 37.8423 45.6Z" fill="#1D335A"/>
<path d="M58.853 45H52.933V17.12H58.853V45Z" fill="#1D335A"/>
<path d="M71.9439 45.6C70.7172 45.6 69.5572 45.48 68.4639 45.24C67.3972 45.0267 66.4506 44.6667 65.6239 44.16C64.8239 43.6267 64.1972 42.92 63.7439 42.04C63.2906 41.1333 63.0639 40.0133 63.0639 38.68C63.0639 37.4267 63.3172 36.3333 63.8239 35.4C64.3572 34.4667 65.1572 33.7467 66.2239 33.24C67.2906 32.7333 68.6372 32.48 70.2639 32.48C71.1706 32.48 72.0506 32.5733 72.9039 32.76C73.7572 32.9467 74.5172 33.2 75.1839 33.52C75.8772 33.84 76.4239 34.1867 76.8239 34.56L77.0639 37.44C76.5306 37.12 75.8906 36.8667 75.1439 36.68C74.3972 36.4933 73.5972 36.4 72.7439 36.4C71.4372 36.4 70.4772 36.6 69.8639 37C69.2772 37.3733 68.9839 37.9733 68.9839 38.8C68.9839 39.3067 69.1306 39.76 69.4239 40.16C69.7172 40.56 70.1039 40.8667 70.5839 41.08C71.0906 41.2933 71.6106 41.4 72.1439 41.4C73.5039 41.4 74.4506 41.3067 74.9839 41.12C75.5439 40.9333 75.8239 40.56 75.8239 40V32.56C75.8239 31.3333 75.4239 30.4533 74.6239 29.92C73.8506 29.36 72.7439 29.08 71.3039 29.08C70.1306 29.08 68.9439 29.2933 67.7439 29.72C66.5706 30.12 65.6106 30.6133 64.8639 31.2V25.92C65.5572 25.4933 66.6239 25.0933 68.0639 24.72C69.5306 24.3467 71.1706 24.16 72.9839 24.16C73.6239 24.16 74.3306 24.2133 75.1039 24.32C75.8772 24.4267 76.6506 24.6267 77.4239 24.92C78.1972 25.1867 78.9039 25.5867 79.5439 26.12C80.2106 26.6533 80.7439 27.3333 81.1439 28.16C81.5439 28.9867 81.7439 30.0133 81.7439 31.24L81.7039 40.8C81.7039 41.9467 81.3172 42.88 80.5439 43.6C79.7706 44.2933 78.6506 44.8 77.1839 45.12C75.7439 45.44 73.9972 45.6 71.9439 45.6Z" fill="#1D335A"/>
<path d="M95.3145 45.8C92.9679 45.8 91.2212 45.2533 90.0745 44.16C88.9279 43.04 88.3545 41.4667 88.3545 39.44V29.32H85.3945V24.76H88.3545V19.2H94.5945V24.76H99.0345V29.32H94.5945V38.68C94.5945 39.3733 94.7412 39.8933 95.0345 40.24C95.3279 40.56 95.8212 40.72 96.5145 40.72C96.9145 40.72 97.3545 40.64 97.8345 40.48C98.3145 40.32 98.7145 40.12 99.0345 39.88V45C98.4745 45.2933 97.8612 45.4933 97.1945 45.6C96.5545 45.7333 95.9279 45.8 95.3145 45.8Z" fill="#1D335A"/>
<path d="M111.358 45.6C110.131 45.6 108.971 45.48 107.878 45.24C106.811 45.0267 105.865 44.6667 105.038 44.16C104.238 43.6267 103.611 42.92 103.158 42.04C102.705 41.1333 102.478 40.0133 102.478 38.68C102.478 37.4267 102.731 36.3333 103.238 35.4C103.771 34.4667 104.571 33.7467 105.638 33.24C106.705 32.7333 108.051 32.48 109.678 32.48C110.585 32.48 111.465 32.5733 112.318 32.76C113.171 32.9467 113.931 33.2 114.598 33.52C115.291 33.84 115.838 34.1867 116.238 34.56L116.478 37.44C115.945 37.12 115.305 36.8667 114.558 36.68C113.811 36.4933 113.011 36.4 112.158 36.4C110.851 36.4 109.891 36.6 109.278 37C108.691 37.3733 108.398 37.9733 108.398 38.8C108.398 39.3067 108.545 39.76 108.838 40.16C109.131 40.56 109.518 40.8667 109.998 41.08C110.505 41.2933 111.025 41.4 111.558 41.4C112.918 41.4 113.865 41.3067 114.398 41.12C114.958 40.9333 115.238 40.56 115.238 40V32.56C115.238 31.3333 114.838 30.4533 114.038 29.92C113.265 29.36 112.158 29.08 110.718 29.08C109.545 29.08 108.358 29.2933 107.158 29.72C105.985 30.12 105.025 30.6133 104.278 31.2V25.92C104.971 25.4933 106.038 25.0933 107.478 24.72C108.945 24.3467 110.585 24.16 112.398 24.16C113.038 24.16 113.745 24.2133 114.518 24.32C115.291 24.4267 116.065 24.6267 116.838 24.92C117.611 25.1867 118.318 25.5867 118.958 26.12C119.625 26.6533 120.158 27.3333 120.558 28.16C120.958 28.9867 121.158 30.0133 121.158 31.24L121.118 40.8C121.118 41.9467 120.731 42.88 119.958 43.6C119.185 44.2933 118.065 44.8 116.598 45.12C115.158 45.44 113.411 45.6 111.358 45.6Z" fill="#1D335A"/>
<path d="M132.449 45.6C131.009 45.6 129.769 45.44 128.729 45.12C127.715 44.8267 126.755 44.4933 125.849 44.12V38.88C126.409 39.2533 127.035 39.64 127.729 40.04C128.422 40.4133 129.182 40.72 130.009 40.96C130.862 41.2 131.755 41.32 132.689 41.32C133.649 41.32 134.315 41.16 134.689 40.84C135.089 40.4933 135.289 40.08 135.289 39.6C135.289 39.1467 135.089 38.7867 134.689 38.52C134.289 38.2267 133.769 37.9867 133.129 37.8C132.489 37.6133 131.809 37.44 131.089 37.28C130.449 37.1467 129.809 36.9467 129.169 36.68C128.529 36.3867 127.955 36 127.449 35.52C126.942 35.04 126.529 34.4533 126.209 33.76C125.915 33.04 125.769 32.1733 125.769 31.16C125.769 29.8533 126.022 28.7733 126.529 27.92C127.035 27.04 127.702 26.3333 128.529 25.8C129.355 25.2667 130.249 24.8933 131.209 24.68C132.169 24.44 133.102 24.3333 134.009 24.36C135.662 24.4133 136.969 24.6 137.929 24.92C138.915 25.2133 139.809 25.6 140.609 26.08V30.76C139.702 30.2533 138.795 29.7867 137.889 29.36C137.009 28.9067 135.995 28.68 134.849 28.68C133.809 28.68 133.062 28.84 132.609 29.16C132.155 29.48 131.929 29.9067 131.929 30.44C131.929 30.9467 132.075 31.3467 132.369 31.64C132.689 31.9333 133.102 32.1733 133.609 32.36C134.115 32.52 134.675 32.68 135.289 32.84C135.955 33 136.635 33.2 137.329 33.44C138.049 33.6533 138.715 33.9733 139.329 34.4C139.969 34.8 140.475 35.3733 140.849 36.12C141.249 36.84 141.449 37.8 141.449 39C141.422 40.6267 140.982 41.9333 140.129 42.92C139.275 43.88 138.169 44.5733 136.809 45C135.475 45.4 134.022 45.6 132.449 45.6Z" fill="#1D335A"/>
<path d="M153.545 45.6C152.319 45.6 151.159 45.48 150.065 45.24C148.999 45.0267 148.052 44.6667 147.225 44.16C146.425 43.6267 145.799 42.92 145.345 42.04C144.892 41.1333 144.665 40.0133 144.665 38.68C144.665 37.4267 144.919 36.3333 145.425 35.4C145.959 34.4667 146.759 33.7467 147.825 33.24C148.892 32.7333 150.239 32.48 151.865 32.48C152.772 32.48 153.652 32.5733 154.505 32.76C155.359 32.9467 156.119 33.2 156.785 33.52C157.479 33.84 158.025 34.1867 158.425 34.56L158.665 37.44C158.132 37.12 157.492 36.8667 156.745 36.68C155.999 36.4933 155.199 36.4 154.345 36.4C153.039 36.4 152.079 36.6 151.465 37C150.879 37.3733 150.585 37.9733 150.585 38.8C150.585 39.3067 150.732 39.76 151.025 40.16C151.319 40.56 151.705 40.8667 152.185 41.08C152.692 41.2933 153.212 41.4 153.745 41.4C155.105 41.4 156.052 41.3067 156.585 41.12C157.145 40.9333 157.425 40.56 157.425 40V32.56C157.425 31.3333 157.025 30.4533 156.225 29.92C155.452 29.36 154.345 29.08 152.905 29.08C151.732 29.08 150.545 29.2933 149.345 29.72C148.172 30.12 147.212 30.6133 146.465 31.2V25.92C147.159 25.4933 148.225 25.0933 149.665 24.72C151.132 24.3467 152.772 24.16 154.585 24.16C155.225 24.16 155.932 24.2133 156.705 24.32C157.479 24.4267 158.252 24.6267 159.025 24.92C159.799 25.1867 160.505 25.5867 161.145 26.12C161.812 26.6533 162.345 27.3333 162.745 28.16C163.145 28.9867 163.345 30.0133 163.345 31.24L163.305 40.8C163.305 41.9467 162.919 42.88 162.145 43.6C161.372 44.2933 160.252 44.8 158.785 45.12C157.345 45.44 155.599 45.6 153.545 45.6Z" fill="#1D335A"/>
<path d="M168.636 45V26.88C169.009 26.56 169.676 26.2 170.636 25.8C171.596 25.3733 172.689 25 173.916 24.68C175.169 24.3333 176.423 24.16 177.676 24.16C178.929 24.16 179.916 24.2533 180.636 24.44C181.356 24.6267 181.903 24.8667 182.276 25.16V29.52C181.823 29.4133 181.249 29.3333 180.556 29.28C179.863 29.2267 179.143 29.2 178.396 29.2C177.649 29.1733 176.943 29.1733 176.276 29.2C175.609 29.2267 175.049 29.28 174.596 29.36V45H168.636Z" fill="#1D335A"/>
<path d="M193.545 45.6C192.319 45.6 191.159 45.48 190.065 45.24C188.999 45.0267 188.052 44.6667 187.225 44.16C186.425 43.6267 185.799 42.92 185.345 42.04C184.892 41.1333 184.665 40.0133 184.665 38.68C184.665 37.4267 184.919 36.3333 185.425 35.4C185.959 34.4667 186.759 33.7467 187.825 33.24C188.892 32.7333 190.239 32.48 191.865 32.48C192.772 32.48 193.652 32.5733 194.505 32.76C195.359 32.9467 196.119 33.2 196.785 33.52C197.479 33.84 198.025 34.1867 198.425 34.56L198.665 37.44C198.132 37.12 197.492 36.8667 196.745 36.68C195.999 36.4933 195.199 36.4 194.345 36.4C193.039 36.4 192.079 36.6 191.465 37C190.879 37.3733 190.585 37.9733 190.585 38.8C190.585 39.3067 190.732 39.76 191.025 40.16C191.319 40.56 191.705 40.8667 192.185 41.08C192.692 41.2933 193.212 41.4 193.745 41.4C195.105 41.4 196.052 41.3067 196.585 41.12C197.145 40.9333 197.425 40.56 197.425 40V32.56C197.425 31.3333 197.025 30.4533 196.225 29.92C195.452 29.36 194.345 29.08 192.905 29.08C191.732 29.08 190.545 29.2933 189.345 29.72C188.172 30.12 187.212 30.6133 186.465 31.2V25.92C187.159 25.4933 188.225 25.0933 189.665 24.72C191.132 24.3467 192.772 24.16 194.585 24.16C195.225 24.16 195.932 24.2133 196.705 24.32C197.479 24.4267 198.252 24.6267 199.025 24.92C199.799 25.1867 200.505 25.5867 201.145 26.12C201.812 26.6533 202.345 27.3333 202.745 28.16C203.145 28.9867 203.345 30.0133 203.345 31.24L203.305 40.8C203.305 41.9467 202.919 42.88 202.145 43.6C201.372 44.2933 200.252 44.8 198.785 45.12C197.345 45.44 195.599 45.6 193.545 45.6Z" fill="#1D335A"/>
<path d="M211.825 52.84C211.158 52.84 210.505 52.7733 209.865 52.64C209.225 52.5067 208.678 52.3333 208.225 52.12V47.28C208.652 47.44 209.052 47.5467 209.425 47.6C209.798 47.68 210.185 47.72 210.585 47.72C211.252 47.72 211.825 47.56 212.305 47.24C212.812 46.9467 213.225 46.4267 213.545 45.68C213.865 44.96 214.118 43.9733 214.305 42.72L214.425 46.12L205.745 24.76H212.585L217.185 38.96H216.585L221.145 24.76H227.545L219.585 45.32C218.865 47.1867 218.078 48.6667 217.225 49.76C216.398 50.8533 215.532 51.64 214.625 52.12C213.718 52.6 212.785 52.84 211.825 52.84Z" fill="#1D335A"/>
<path d="M251.351 45.56C249.991 45.56 248.764 45.4933 247.671 45.36C246.577 45.2267 245.564 45.0267 244.631 44.76C243.697 44.4933 242.791 44.1467 241.911 43.72V37.56C243.137 38.5467 244.524 39.2933 246.071 39.8C247.617 40.3067 249.084 40.56 250.471 40.56C251.697 40.56 252.631 40.3333 253.271 39.88C253.937 39.4 254.271 38.68 254.271 37.72C254.271 37 253.964 36.4267 253.351 36C252.764 35.5467 251.977 35.16 250.991 34.84C250.004 34.4933 248.897 34.1067 247.671 33.68C246.897 33.44 246.137 33.1333 245.391 32.76C244.644 32.3867 243.977 31.92 243.391 31.36C242.804 30.7733 242.337 30.0667 241.991 29.24C241.644 28.4133 241.471 27.4 241.471 26.2C241.471 25.1067 241.671 24.0533 242.071 23.04C242.471 22.0267 243.084 21.12 243.911 20.32C244.764 19.52 245.844 18.8933 247.151 18.44C248.457 17.96 249.991 17.72 251.751 17.72C252.844 17.72 253.804 17.7867 254.631 17.92C255.484 18.0533 256.297 18.2533 257.071 18.52C257.844 18.76 258.631 19.08 259.431 19.48V25.72C258.817 25.2133 258.124 24.7467 257.351 24.32C256.604 23.8667 255.817 23.4933 254.991 23.2C254.164 22.9067 253.297 22.7467 252.391 22.72C251.591 22.6933 250.857 22.7733 250.191 22.96C249.524 23.1467 249.004 23.4533 248.631 23.88C248.257 24.28 248.071 24.8 248.071 25.44C248.071 26.1867 248.297 26.7733 248.751 27.2C249.204 27.6267 249.831 27.9867 250.631 28.28C251.431 28.5467 252.324 28.84 253.311 29.16C254.404 29.48 255.404 29.84 256.311 30.24C257.244 30.6133 258.057 31.0933 258.751 31.68C259.444 32.2667 259.977 32.9867 260.351 33.84C260.724 34.6933 260.911 35.72 260.911 36.92C260.911 38.52 260.537 39.9867 259.791 41.32C259.044 42.6267 257.964 43.6667 256.551 44.44C255.137 45.1867 253.404 45.56 251.351 45.56Z" fill="#1D335A"/>
<path d="M264.997 45V39.36H270.797V45H264.997Z" fill="#1D335A"/>
<path d="M282.185 37L279.985 32.88L290.625 18.32H298.785L282.185 37ZM275.985 45V18.32H282.465V45H275.985ZM287.985 28.48L299.625 45H291.505L282.985 32.64L287.985 28.48Z" fill="#1D335A"/>
<path d="M302.692 45V39.36H308.492V45H302.692Z" fill="#1D335A"/>
</svg>
