<svg width="153" height="37" viewBox="0 0 153 37" fill="none" xmlns="http://www.w3.org/2000/svg">
<g clip-path="url(#clip0_3_85)">
<path d="M7.15261 37L3.57631 30.8329L0 24.6664H7.15261H14.3045L10.7289 30.8329L7.15261 37Z" fill="#1D335A"/>
<path d="M21.4564 37L17.8801 30.8329L14.3045 24.6664H21.4564H28.609L25.0327 30.8329L21.4564 37Z" fill="#1D335A"/>
<path d="M14.3045 24.6664L10.7282 18.5L7.1519 12.3336H14.3045H21.4564L17.8808 18.5L14.3045 24.6664Z" fill="#1A355E"/>
<path d="M14.3045 0L17.8808 6.16643L21.4564 12.3336H14.3045H7.1519L10.7282 6.16643L14.3045 0Z" fill="#274B80"/>
<path d="M7.1519 12.3336L10.7282 18.5L14.3045 24.6664H7.1519H0L3.57631 18.5L7.1519 12.3336Z" fill="#274677"/>
<path d="M44.3582 23.4143V25.5642H35.1503V9.02521H37.5238V23.4143H44.3589H44.3582Z" fill="#1D335A"/>
<path d="M56.7451 18.3345V25.5642H54.5856V23.91C54.0398 24.8312 52.5445 25.871 50.6462 25.871C48.3675 25.871 46.3743 24.5009 46.3743 22.3503C46.3743 18.5937 50.9543 18.4993 52.6394 18.4993H54.5856C54.5856 16.6803 54.2061 15.2626 51.7141 15.2626C50.4564 15.2626 49.1273 15.9005 48.6051 16.3259L47.0863 15.1682C48.4153 13.9629 50.2424 13.3016 52.1415 13.3016C55.6065 13.3016 56.7458 15.475 56.7458 18.3345H56.7451ZM54.5856 20.1776H53.7552C51.5244 20.1776 48.6051 20.1542 48.6051 22.2565C48.6051 23.1777 49.1987 24.1231 51.1206 24.1231C53.1852 24.1231 54.4429 22.682 54.5856 22.1386V20.1776Z" fill="#1D335A"/>
<path d="M70.3198 13.5851V25.5642H68.1603V23.91C67.4483 24.9733 66.2619 25.871 64.4584 25.871C61.7532 25.871 59.8305 23.6266 59.8305 21.0981V13.5844H61.99V20.4596C61.99 22.1607 62.702 23.8149 64.9564 23.8149C67.2107 23.8149 68.1603 21.8773 68.1603 20.4596V13.5844H70.3198V13.5851Z" fill="#1D335A"/>
<path d="M83.8945 18.0745V25.5642H81.735V18.6889C81.735 17.0113 81.023 15.3337 78.7686 15.3337C76.5143 15.3337 75.5647 17.2947 75.5647 18.6889V25.5642H73.4052V13.585H75.5647V15.2626C76.2767 14.1994 77.4631 13.3016 79.2908 13.3016C81.9961 13.3016 83.8952 15.546 83.8952 18.0745H83.8945Z" fill="#1D335A"/>
<path d="M96.068 21.9021L97.9193 22.8944C96.8278 24.6665 94.9287 25.871 92.5795 25.871C88.9482 25.871 86.2665 23.0357 86.2665 19.586C86.2665 16.1363 88.9482 13.301 92.5795 13.301C94.9287 13.301 96.8278 14.5063 97.9193 16.2542L96.068 17.2699C95.3561 16.0887 94.0983 15.3323 92.5795 15.3323C90.206 15.3323 88.4738 17.1278 88.4738 19.5853C88.4738 22.0428 90.206 23.8149 92.5795 23.8149C94.0983 23.8149 95.3561 23.0826 96.068 21.9007V21.9021Z" fill="#1D335A"/>
<path d="M110.45 18.0746V25.5642H108.267V18.6889C108.267 17.0113 107.555 15.3337 105.3 15.3337C103.046 15.3337 102.096 17.2947 102.096 18.6889V25.5642H99.9368V9.02521H102.096V15.2627C102.808 14.1994 103.995 13.3017 105.822 13.3017C108.528 13.3017 110.45 15.5461 110.45 18.0746H110.45Z" fill="#1D335A"/>
<path d="M126.065 19.5867C126.065 22.7288 123.835 25.8717 120.085 25.8717C117.997 25.8717 116.596 25.0208 115.695 23.8873V30.1247H113.535V13.585H115.695V15.2626C116.596 14.1525 117.997 13.3016 120.085 13.3016C123.835 13.3016 126.065 16.4438 126.065 19.5867ZM123.858 19.5867C123.858 17.1768 122.339 15.3337 119.871 15.3337C117.213 15.3337 115.694 17.2237 115.694 19.5867C115.694 21.9497 117.213 23.8162 119.871 23.8162C122.339 23.8162 123.858 21.9973 123.858 19.5867Z" fill="#1D335A"/>
<path d="M138.097 18.3345V25.5642H135.937V23.91C135.392 24.8312 133.896 25.871 131.998 25.871C129.719 25.871 127.726 24.5009 127.726 22.3503C127.726 18.5937 132.306 18.4993 133.991 18.4993H135.937C135.937 16.6803 135.558 15.2626 133.066 15.2626C131.808 15.2626 130.479 15.9005 129.957 16.3259L128.438 15.1682C129.767 13.9629 131.594 13.3016 133.493 13.3016C136.958 13.3016 138.098 15.475 138.098 18.3345H138.097ZM135.937 20.1776H135.107C132.876 20.1776 129.957 20.1542 129.957 22.2565C129.957 23.1777 130.551 24.1231 132.472 24.1231C134.537 24.1231 135.795 22.682 135.937 22.1386V20.1776Z" fill="#1D335A"/>
<path d="M153 9.02521V25.5642H150.841V23.8866C149.939 25.0208 148.563 25.871 146.474 25.871C142.724 25.871 140.47 22.7289 140.47 19.586C140.47 16.4431 142.724 13.3009 146.474 13.3009C148.562 13.3009 149.939 14.1518 150.841 15.262V9.02521H153ZM150.841 19.5867C150.841 17.2237 149.322 15.3337 146.688 15.3337C144.196 15.3337 142.701 17.1768 142.701 19.5867C142.701 21.9966 144.196 23.8163 146.688 23.8163C149.322 23.8163 150.841 21.9497 150.841 19.5867Z" fill="#1D335A"/>
</g>
<defs>
<clipPath id="clip0_3_85">
<rect width="153" height="37" fill="white"/>
</clipPath>
</defs>
</svg>
