<svg width="115" height="27" viewBox="0 0 115 27" fill="none" xmlns="http://www.w3.org/2000/svg">
<path d="M111.189 19.8385C110.925 20.1497 110.62 20.4117 110.283 20.6288C109.945 20.8458 109.58 21.0096 109.194 21.1242C108.808 21.2389 108.405 21.2962 107.987 21.2962C107.82 21.2962 107.654 21.288 107.487 21.2716C107.321 21.2552 107.154 21.2225 106.987 21.1692L115 11.4404C114.602 10.8712 114.143 10.3594 113.623 9.90491C113.103 9.44631 112.542 9.06142 111.94 8.74613C111.339 8.43085 110.705 8.18926 110.039 8.02138C109.373 7.8535 108.69 7.76752 107.991 7.76752C106.813 7.76752 105.703 7.98453 104.667 8.41447C103.631 8.8444 102.721 9.45041 101.945 10.2284C101.169 11.0064 100.555 11.9481 100.108 13.0496C99.6615 14.1551 99.434 15.3712 99.434 16.7061C99.434 18.0409 99.6575 19.2038 100.108 20.293C100.555 21.3822 101.169 22.3198 101.945 23.106C102.721 23.8963 103.631 24.5105 104.667 24.9527C105.703 25.3949 106.813 25.616 107.991 25.616C108.69 25.616 109.368 25.5341 110.035 25.3703C110.697 25.2066 111.327 24.9691 111.928 24.6538C112.53 24.3385 113.086 23.9536 113.602 23.5032C114.118 23.0528 114.573 22.5409 114.972 21.9718L111.843 18.8025C111.676 19.1793 111.461 19.5273 111.193 19.8344L111.189 19.8385ZM104.204 18.9459C104.119 18.7985 104.054 18.6306 104.001 18.4422C103.948 18.2539 103.903 18.0573 103.867 17.8526C103.83 17.6479 103.806 17.4472 103.79 17.2466C103.773 17.0459 103.765 16.8699 103.765 16.7102C103.765 16.0059 103.875 15.3712 104.094 14.8103C104.314 14.2493 104.615 13.7662 104.992 13.369C105.374 12.9677 105.821 12.6606 106.337 12.4477C106.853 12.2307 107.402 12.1242 107.987 12.1242C108.194 12.1242 108.397 12.1365 108.588 12.157C108.779 12.1774 108.978 12.2266 109.173 12.3003L104.2 18.9541L104.204 18.9459Z" fill="#1D335A"/>
<path d="M97.0692 1.69927H92.7663V25.3007H97.0692V1.69927Z" fill="#1D335A"/>
<path d="M85.2088 9.58144C84.9772 9.24568 84.6969 8.96315 84.3637 8.72975C84.0305 8.50045 83.6729 8.3121 83.291 8.16879C82.9091 8.02548 82.519 7.92311 82.1167 7.86169C81.7145 7.80027 81.3285 7.76752 80.9506 7.76752C79.7723 7.76752 78.663 7.99272 77.6269 8.44722C76.5908 8.89763 75.6807 9.52411 74.9046 10.3226C74.1285 11.121 73.515 12.0669 73.0681 13.1601C72.6211 14.2534 72.3936 15.4368 72.3936 16.7061C72.3936 17.9754 72.617 19.1752 73.0681 20.2602C73.515 21.3494 74.1285 22.2871 74.9046 23.0814C75.6807 23.8758 76.5908 24.4941 77.6269 24.9404C78.663 25.3867 79.7723 25.6119 80.9506 25.6119H89.5076V1.69927H85.2048V9.58144H85.2088ZM85.7939 21.8694L83.2869 20.6288C82.8562 20.8867 82.3849 21.0751 81.877 21.1815C81.5804 21.2593 81.2716 21.2962 80.9506 21.2962C80.5565 21.2962 80.1827 21.2389 79.817 21.1324C77.8504 20.6247 76.3998 18.8271 76.3998 16.6897C76.3998 14.1551 78.4396 12.0996 80.9547 12.0996C83.4698 12.0996 85.5095 14.1551 85.5095 16.6897C85.5095 17.7175 85.1763 18.6633 84.6075 19.429L85.7939 21.8735V21.8694Z" fill="#1D335A"/>
<path d="M70.0654 8.41447H65.7625V25.3007H70.0654V8.41447Z" fill="#1D335A"/>
<path d="M69.9557 1.80164C69.6956 1.54368 69.3909 1.33894 69.0414 1.18744C68.692 1.03594 68.3182 0.958144 67.9241 0.958144C67.5299 0.958144 67.1561 1.03594 66.8067 1.18744C66.4573 1.33894 66.1566 1.54368 65.9006 1.80164C65.6446 2.0596 65.4415 2.3626 65.2911 2.71474C65.1408 3.06688 65.0636 3.43949 65.0636 3.82439C65.0636 4.20928 65.1408 4.59827 65.2911 4.94222C65.4415 5.29026 65.6446 5.59327 65.9006 5.84713C66.1566 6.1051 66.4573 6.30983 66.8067 6.46133C67.1561 6.61283 67.5299 6.69063 67.9241 6.69063C68.3182 6.69063 68.692 6.61283 69.0414 6.46133C69.3909 6.30983 69.6956 6.1051 69.9557 5.84713C70.2157 5.58917 70.4229 5.28617 70.5733 4.94222C70.7236 4.59418 70.8008 4.22157 70.8008 3.82439C70.8008 3.42721 70.7236 3.06688 70.5733 2.71474C70.4229 2.3626 70.2157 2.0596 69.9557 1.80164Z" fill="#1D335A"/>
<path d="M60.2447 4.35669C59.6352 3.74249 58.9201 3.25933 58.0993 2.90719C57.2786 2.55505 56.405 2.37898 55.4786 2.37898C54.6456 2.37898 53.8452 2.53048 53.0772 2.82939C52.3093 3.1283 51.6186 3.56233 51.005 4.13148C50.3915 3.56233 49.6967 3.1283 48.9247 2.82939C48.1527 2.53048 47.3482 2.37898 46.5152 2.37898C45.5848 2.37898 44.7152 2.55505 43.8945 2.90719C43.0737 3.25933 42.3627 3.74249 41.7491 4.35669C41.1396 4.97088 40.6602 5.69154 40.3107 6.51865C39.9613 7.34577 39.7866 8.22611 39.7866 9.15969V25.3007H44.2764V9.1556C44.2764 8.84031 44.3333 8.5455 44.4471 8.27116C44.5608 7.99682 44.7193 7.75933 44.9224 7.55459C45.1256 7.34986 45.3613 7.19017 45.6335 7.07552C45.9057 6.96087 46.1983 6.90355 46.5112 6.90355C46.824 6.90355 47.1166 6.96087 47.3888 7.07552C47.661 7.19017 47.8967 7.34986 48.0998 7.55459C48.303 7.75933 48.4615 7.99682 48.5752 8.27116C48.689 8.5455 48.7459 8.84031 48.7459 9.1556V25.3007H53.2357V9.1556C53.2357 8.84031 53.2926 8.5455 53.4064 8.27116C53.5201 7.99682 53.6786 7.75933 53.8817 7.55459C54.0849 7.34986 54.3206 7.19017 54.5928 7.07552C54.865 6.96087 55.1576 6.90355 55.4705 6.90355C55.7833 6.90355 56.0759 6.96087 56.3481 7.07552C56.6203 7.19017 56.856 7.34986 57.0591 7.55459C57.2623 7.75933 57.4248 7.99682 57.5427 8.27116C57.6605 8.5455 57.7214 8.84031 57.7214 9.1556V25.3007H62.195V9.1556C62.195 8.22202 62.0203 7.34167 61.6709 6.51456C61.3214 5.68744 60.842 4.97088 60.2325 4.35259L60.2447 4.35669Z" fill="#1D335A"/>
<path d="M8.43515 22.0373V0L0 4.96269V27L8.43515 22.0373Z" fill="#1F4582"/>
<path d="M8.8049 22.0373L17.2441 27V4.96269L8.8049 0V22.0373Z" fill="#1D335A"/>
<path d="M26.049 22.0373V0L17.6139 4.96269V27L26.049 22.0373Z" fill="#1F4582"/>
<path d="M34.858 27V4.96269L26.4188 0V22.0373L34.858 27Z" fill="#1D335A"/>
</svg>
