<svg width="165" height="32" viewBox="0 0 165 32" fill="none" xmlns="http://www.w3.org/2000/svg">
<rect x="2.5791" y="2.57904" width="161.921" height="28.8597" fill="#1D335A" stroke="#F5F5F7"/>
<rect x="0.5" y="0.5" width="161.921" height="28.8597" fill="#1D335A" stroke="#F5F5F7"/>
<path d="M17.5253 15.8529H21.2343C20.54 16.7494 19.3798 16.8549 17.5605 16.8549C15.6708 16.8285 14.0712 16.4945 14.0976 14.5521V14.2621C14.0712 12.3373 15.6708 11.9857 17.5605 11.9594C18.2372 11.9594 18.8525 12.0297 19.3974 12.1703C19.9423 12.3109 20.3642 12.5746 20.6542 12.9701H25.5497C25.0312 9.33142 21.6562 8.21521 17.5605 8.21521C13.1132 8.224 9.47455 9.5072 9.49213 13.9808V14.8422C9.47455 19.307 13.1132 20.5902 17.5605 20.6078C19.5644 20.6078 21.6474 20.1244 23.0185 18.7709L23.247 20.6078H25.5497V13.8314H17.5253V15.8529ZM34.9892 11.9418L36.6064 15.431H33.3632L34.9892 11.9418ZM25.9101 20.3353H31.0956L32.0273 18.3138H37.9423L38.874 20.3353H44.0595L37.7226 8.52283H32.247L25.9101 20.3353ZM44.4199 20.3177H49.0253V14.016L53.6396 20.3177H55.9423L60.5566 14.016V20.3177H65.162V8.50525H59.4052L54.791 14.4115L50.1855 8.50525H44.4199V20.3177ZM67.8515 8.50525V20.3177H72.457V8.50525H67.8515ZM81.5976 20.3177H86.2031V14.016L90.8173 20.3177H93.1201L97.7343 14.016V20.3177H102.34V8.50525H96.5829L91.9687 14.4115L87.3632 8.50525H81.5976V20.3177ZM112.043 8.21521C107.596 8.224 103.957 9.5072 103.975 13.9808V14.8422C103.957 19.307 107.596 20.599 112.043 20.6078C116.481 20.599 120.12 19.307 120.102 14.8422V13.9808C120.102 9.51599 116.49 8.21521 112.043 8.21521ZM115.497 14.5521C115.523 16.4857 113.924 16.8373 112.043 16.8636C110.153 16.8373 108.554 16.4857 108.58 14.5521V14.2621C108.554 12.3373 110.153 11.9857 112.043 11.9594C113.924 11.9857 115.523 12.3373 115.497 14.2621V14.5521ZM124.453 8.52283H119.268L125.314 20.3353H130.79L136.846 8.52283H131.66L128.057 16.723L124.453 8.52283ZM137.197 20.3353H151.022V17.3031H141.803V15.7914H151.022V13.058H141.803V11.5463H151.022V8.52283H137.197V20.3353Z" fill="#F0F0F3"/>
</svg>
