<svg width="91" height="29" viewBox="0 0 91 29" fill="none" xmlns="http://www.w3.org/2000/svg">
<g clip-path="url(#clip0_3_151)">
<path d="M15.7188 3.76954H9.66155V24.8564C9.66155 27.1443 7.82689 28.9991 5.56397 28.9991V3.76954H0C0 1.6875 1.66911 0 3.72846 0H19.4481C19.4481 2.08204 17.779 3.76954 15.7197 3.76954H15.7188Z" fill="#1D335A"/>
<path d="M1.53987 6.48182L1.53987 16.1226C1.53987 16.7886 2.07386 17.3284 2.73257 17.3284H2.73342C3.39213 17.3284 3.92612 16.7886 3.92612 16.1226L3.92612 6.48182C3.92612 5.81586 3.39213 5.27598 2.73342 5.27598H2.73257C2.07386 5.27598 1.53987 5.81586 1.53987 6.48182Z" fill="#274677"/>
<path d="M11.3383 6.48097L11.3383 22.5284C11.3383 23.1944 11.8722 23.7343 12.531 23.7343H12.5318C13.1905 23.7343 13.7245 23.1944 13.7245 22.5284V6.48097C13.7245 5.815 13.1905 5.27513 12.5318 5.27513H12.531C11.8722 5.27513 11.3383 5.815 11.3383 6.48097Z" fill="#274677"/>
<path d="M31.4174 24.9973V6.58173H25.1903V4.58508H39.8389V6.58173H33.6119V24.9973H31.4174Z" fill="#1D335A"/>
<path d="M46.8067 25.1638C45.7458 25.1638 44.8175 25.0528 44.0226 24.8307C43.2269 24.6087 42.5639 24.221 42.0334 23.6659C41.5029 23.1108 41.1093 22.3396 40.8542 21.3499C40.5983 20.3609 40.4699 19.0987 40.4699 17.5641C40.4699 16.0295 40.5974 14.7399 40.8542 13.751C41.1102 12.7621 41.5029 11.9943 42.0334 11.4495C42.5639 10.9046 43.2269 10.5254 44.0226 10.3119C44.8183 10.0993 45.7458 9.99341 46.8067 9.99341C47.8677 9.99341 48.796 10.1044 49.5908 10.3265C50.3865 10.5485 51.0488 10.9319 51.5801 11.4777C52.1105 12.0234 52.5084 12.7911 52.7736 13.7792C53.0388 14.769 53.1715 16.0303 53.1715 17.5649C53.1715 19.0996 53.0388 20.3891 52.7736 21.378C52.5084 22.367 52.1156 23.1347 51.5944 23.6796C51.0733 24.2253 50.4102 24.6087 49.6052 24.8307C48.8002 25.0528 47.8677 25.1638 46.8067 25.1638ZM46.8067 23.361C47.4833 23.361 48.0822 23.2961 48.6034 23.1672C49.1246 23.0382 49.5587 22.7786 49.9067 22.3909C50.2539 22.0023 50.5191 21.4199 50.7024 20.6436C50.8849 19.8673 50.977 18.8408 50.977 17.5649C50.977 16.2891 50.8849 15.2446 50.7024 14.4863C50.5191 13.7288 50.2539 13.1549 49.9067 12.7672C49.5587 12.3786 49.1246 12.1199 48.6034 11.9909C48.0822 11.862 47.4833 11.797 46.8067 11.797C46.1301 11.797 45.5076 11.862 44.9966 11.9909C44.4847 12.1207 44.0547 12.3795 43.7076 12.7672C43.3596 13.1558 43.0943 13.7288 42.9119 14.4863C42.7286 15.2446 42.6374 16.2711 42.6374 17.5649C42.6374 18.8587 42.7286 19.8665 42.9119 20.6436C43.0943 21.4199 43.3596 22.0023 43.7076 22.3909C44.0547 22.7794 44.4847 23.0382 44.9966 23.1672C45.5084 23.297 46.1116 23.361 46.8067 23.361Z" fill="#1D335A"/>
<path d="M62.6354 25.1638C61.5744 25.1638 60.6461 25.0528 59.8513 24.8307C59.0556 24.6087 58.3925 24.221 57.862 23.6659C57.3316 23.1108 56.9379 22.3396 56.6828 21.3499C56.4269 20.3609 56.2985 19.0987 56.2985 17.5641C56.2985 16.0295 56.4261 14.7399 56.6828 13.751C56.9388 12.7621 57.3316 11.9943 57.862 11.4495C58.3925 10.9046 59.0556 10.5254 59.8513 10.3119C60.647 10.0993 61.5744 9.99341 62.6354 9.99341C63.6963 9.99341 64.6246 10.1044 65.4194 10.3265C66.2151 10.5485 66.8774 10.9319 67.4087 11.4777C67.9392 12.0234 68.337 12.7911 68.6022 13.7792C68.8675 14.769 69.0001 16.0303 69.0001 17.5649C69.0001 19.0996 68.8675 20.3891 68.6022 21.378C68.337 22.367 67.9442 23.1347 67.4231 23.6796C66.9019 24.2253 66.2388 24.6087 65.4338 24.8307C64.6288 25.0528 63.6963 25.1638 62.6354 25.1638ZM62.6354 23.361C63.312 23.361 63.9108 23.2961 64.432 23.1672C64.9532 23.0382 65.3874 22.7786 65.7354 22.3909C66.0825 22.0023 66.3478 21.4199 66.5311 20.6436C66.7135 19.8673 66.8056 18.8408 66.8056 17.5649C66.8056 16.2891 66.7135 15.2446 66.5311 14.4863C66.3478 13.7288 66.0825 13.1549 65.7354 12.7672C65.3874 12.3786 64.9532 12.1199 64.432 11.9909C63.9108 11.862 63.312 11.797 62.6354 11.797C61.9588 11.797 61.3362 11.862 60.8252 11.9909C60.3133 12.1207 59.8834 12.3795 59.5362 12.7672C59.1882 13.1558 58.9229 13.7288 58.7405 14.4863C58.5572 15.2446 58.466 16.2711 58.466 17.5649C58.466 18.8587 58.5572 19.8665 58.7405 20.6436C58.9229 21.4199 59.1882 22.0023 59.5362 22.3909C59.8834 22.7794 60.3133 23.0382 60.8252 23.1672C61.3371 23.297 61.9402 23.361 62.6354 23.361Z" fill="#1D335A"/>
<path d="M76.4883 25.0246C75.6469 25.0246 74.9425 24.8718 74.3757 24.5669C73.8089 24.262 73.379 23.7624 73.0867 23.069C72.7936 22.3755 72.6474 21.437 72.6474 20.2542V3.83612H74.8149V19.9775C74.8149 20.8648 74.8969 21.5352 75.0616 21.9887C75.2263 22.4421 75.4636 22.7564 75.7745 22.9315C76.0853 23.1074 76.4511 23.2227 76.8717 23.2782L78.3533 23.4447V25.0255H76.4883V25.0246Z" fill="#1D335A"/>
<path d="M85.7604 25.1638C85.3947 25.1638 84.9461 25.1544 84.4165 25.1365C83.886 25.1177 83.3328 25.0904 82.7567 25.0537C82.1806 25.0161 81.6594 24.9751 81.1932 24.929C80.7269 24.8829 80.3654 24.8316 80.1094 24.7761V23.4447H86.1169C86.72 23.4447 87.242 23.3986 87.6804 23.3064C88.1196 23.2142 88.4626 23.0109 88.7092 22.6966C88.9559 22.3824 89.0792 21.911 89.0792 21.2824V20.6172C89.0792 19.9698 88.8689 19.466 88.4482 19.1056C88.0275 18.7452 87.351 18.565 86.4184 18.565H84.3608C83.5009 18.565 82.7373 18.454 82.07 18.2319C81.4018 18.0099 80.8857 17.6316 80.52 17.0944C80.1542 16.5581 79.9718 15.8185 79.9718 14.8757V14.0995C79.9718 13.1754 80.15 12.4171 80.5064 11.8253C80.8629 11.2334 81.4204 10.7902 82.1798 10.4939C82.9383 10.1984 83.9215 10.0498 85.1286 10.0498C85.6405 10.0498 86.2301 10.0686 86.8982 10.1053C87.5655 10.1429 88.2193 10.1933 88.8596 10.2582C89.4998 10.3231 90.021 10.3923 90.4231 10.4666V11.7979H84.7721C83.8396 11.7979 83.1216 11.9551 82.619 12.2693C82.1156 12.5836 81.8647 13.1942 81.8647 14.0995V14.7092C81.8647 15.2822 81.9838 15.7127 82.2212 15.9987C82.4585 16.2857 82.7922 16.4753 83.2221 16.5675C83.6512 16.6606 84.1504 16.7059 84.7172 16.7059H86.8019C88.1365 16.7059 89.1704 17.0201 89.9019 17.6487C90.6334 18.2772 90.9992 19.1833 90.9992 20.3669V21.3934C90.9992 22.3918 90.7753 23.1638 90.3268 23.7095C89.8783 24.2552 89.2659 24.6344 88.4887 24.847C87.7108 25.0596 86.8019 25.1655 85.7596 25.1655L85.7604 25.1638Z" fill="#1D335A"/>
</g>
<defs>
<clipPath id="clip0_3_151">
<rect width="91" height="29" fill="white"/>
</clipPath>
</defs>
</svg>
